HIERARCHY
ROOT Hips
{
	OFFSET 0.000000 0.000000 0.000000
	CHANNELS 6 Xposition Yposition Zposition Zrotation Yrotation Xrotation 
	JOINT LHipJoint
	{
		OFFSET 0.000000 0.000000 0.000000
		CHANNELS 3 Zrotation Yrotation Xrotation
		JOINT LeftUpLeg
		{
			OFFSET 1.363060 -1.794630 0.839290
			CHANNELS 3 Zrotation Yrotation Xrotation
			JOINT LeftLeg
			{
				OFFSET 2.448110 -6.726130 0.000000
				CHANNELS 3 Zrotation Yrotation Xrotation
				JOINT LeftFoot
				{
					OFFSET 2.562200 -7.039590 0.000000
					CHANNELS 3 Zrotation Yrotation Xrotation
					JOINT LeftToeBase
					{
						OFFSET 0.157640 -0.433110 2.322550
						CHANNELS 3 Zrotation Yrotation Xrotation
						End Site
						{
							OFFSET 0.000000 0.000000 0.000000
						}
					}
				}
			}
		}
	}
	JOINT RHipJoint
	{
		OFFSET 0.000000 0.000000 0.000000
		CHANNELS 3 Zrotation Yrotation Xrotation
		JOINT RightUpLeg
		{
			OFFSET -1.305520 -1.794630 0.839290
			CHANNELS 3 Zrotation Yrotation Xrotation
			JOINT RightLeg
			{
				OFFSET -2.542530 -6.985550 0.000000
				CHANNELS 3 Zrotation Yrotation Xrotation
				JOINT RightFoot
				{
					OFFSET -2.568260 -7.056230 0.000000
					CHANNELS 3 Zrotation Yrotation Xrotation
					JOINT RightToeBase
					{
						OFFSET -0.164730 -0.452590 2.363150
						CHANNELS 3 Zrotation Yrotation Xrotation
						End Site
						{
							OFFSET 0.000000 0.000000 0.000000
						}
					}
				}
			}
		}
	}
	JOINT LowerBack
	{
		OFFSET 0.000000 0.000000 0.000000
		CHANNELS 3 Zrotation Yrotation Xrotation
		JOINT Spine
		{
			OFFSET 0.028270 2.035590 -0.193380
			CHANNELS 3 Zrotation Yrotation Xrotation
			JOINT Spine1
			{
				OFFSET 0.056720 2.048850 -0.042750
				CHANNELS 3 Zrotation Yrotation Xrotation
				JOINT Neck
				{
					OFFSET 0.000000 0.000000 0.000000
					CHANNELS 3 Zrotation Yrotation Xrotation
					JOINT Neck1
					{
						OFFSET -0.054170 1.746240 0.172020
						CHANNELS 3 Zrotation Yrotation Xrotation
						JOINT Head
						{
							OFFSET 0.104070 1.761360 -0.123970
							CHANNELS 3 Zrotation Yrotation Xrotation
							End Site
							{
								OFFSET 0.000000 0.000000 0.000000
							}
						}
					}
				}
				JOINT LeftShoulder
				{
					OFFSET 0.000000 0.000000 0.000000
					CHANNELS 3 Zrotation Yrotation Xrotation
					JOINT LeftArm
					{
						OFFSET 3.362410 1.200890 -0.311210
						CHANNELS 3 Zrotation Yrotation Xrotation
						JOINT LeftForeArm
						{
							OFFSET 4.983000 -0.000000 -0.000000
							CHANNELS 3 Zrotation Yrotation Xrotation
							JOINT LeftHand
							{
								OFFSET 3.483560 -0.000000 -0.000000
								CHANNELS 3 Zrotation Yrotation Xrotation
								JOINT LeftFingerBase
								{
									OFFSET 0.000000 0.000000 0.000000
									CHANNELS 3 Zrotation Yrotation Xrotation
									JOINT LeftHandIndex1
									{
										OFFSET 0.715260 -0.000000 -0.000000
										CHANNELS 3 Zrotation Yrotation Xrotation
										End Site
										{
											OFFSET 0.000000 0.000000 0.000000
										}
									}
								}
								JOINT LThumb
								{
									OFFSET 0.000000 0.000000 0.000000
									CHANNELS 3 Zrotation Yrotation Xrotation
									End Site
									{
										OFFSET 0.000000 0.000000 0.000000
									}
								}
							}
						}
					}
				}
				JOINT RightShoulder
				{
					OFFSET 0.000000 0.000000 0.000000
					CHANNELS 3 Zrotation Yrotation Xrotation
					JOINT RightArm
					{
						OFFSET -3.136600 1.374050 -0.404650
						CHANNELS 3 Zrotation Yrotation Xrotation
						JOINT RightForeArm
						{
							OFFSET -5.241900 -0.000000 -0.000000
							CHANNELS 3 Zrotation Yrotation Xrotation
							JOINT RightHand
							{
								OFFSET -3.444170 -0.000000 -0.000000
								CHANNELS 3 Zrotation Yrotation Xrotation
								JOINT RightFingerBase
								{
									OFFSET 0.000000 0.000000 0.000000
									CHANNELS 3 Zrotation Yrotation Xrotation
									JOINT RightHandIndex1
									{
										OFFSET -0.622530 -0.000000 -0.000000
										CHANNELS 3 Zrotation Yrotation Xrotation
										End Site
										{
											OFFSET 0.000000 0.000000 0.000000
										}
									}
								}
								JOINT RThumb
								{
									OFFSET 0.000000 0.000000 0.000000
									CHANNELS 3 Zrotation Yrotation Xrotation
									End Site
									{
										OFFSET 0.000000 0.000000 0.000000
									}
								}
							}
						}
					}
				}
			}
		}
	}
}
MOTION
Frames: 7
Frame Time: 0.008333
2.953548 16.424909 -0.574165 -16.454503 86.580034 -0.839904 14.348227 3.877031 -3.967149 -36.234886 -8.861675 -8.353307 1.126012 6.498630 15.811926 -1.303573 16.648752 29.633410 0.262300 -3.295000 -9.101200 -26.555969 -4.780190 -3.659205 50.029855 23.545040 -1.582786 -2.609548 -5.271083 15.377431 -3.427696 -8.148835 -31.691964 -0.513000 4.591000 -12.745600 0.552692 0.459768 -3.275105 0.582972 0.312325 -13.601565 2.321110 0.281850 9.494874 -1.825120 -9.412261 -27.486769 7.119783 41.475322 9.087023 179.518000 39.852800 28.416700 5.984117 -8.478360 6.145686 -94.898396 1.967215 31.526699 40.290204 -42.709187 -7.056084 0.100758 5.888762 -5.357014 10.208033 14.558159 1.460600 -7.125000 0.000000 0.000000 -14.705800 38.276300 2.499500 -3.394616 9.247909 5.068702 84.021151 -4.633293 43.801077 -36.668650 32.060459 -7.368126 -1.655861 -2.821924 4.726236 -20.004124 -8.625258 1.857700 7.125000 0.000000 0.000000 6.737700 -35.733600 1.543100 
2.951684 16.425175 -0.576651 -16.895620 86.610993 -1.286060 14.358672 3.895417 -3.942013 -36.234325 -8.950563 -8.331313 1.119477 6.486957 15.771744 -1.277091 16.622914 29.707370 0.263100 -3.300200 -9.115600 -26.537521 -4.773655 -3.682560 50.022040 23.480034 -1.605271 -2.615018 -5.286188 15.424563 -3.427350 -8.120140 -31.706954 -0.507100 4.564900 -12.671600 0.597732 0.445284 -3.266833 0.630125 0.293382 -13.609696 2.324198 0.275167 9.516254 -1.832285 -9.362236 -27.541927 7.137955 41.737005 9.114601 179.528000 40.040000 28.530300 5.994296 -8.486867 6.145645 -94.979732 2.003335 31.566664 40.224490 -42.633817 -7.028091 0.123063 5.857810 -5.131116 10.247405 14.414777 1.447700 -7.125000 0.000000 0.000000 -14.645600 38.168400 2.528700 -3.419014 9.269979 5.076115 83.941945 -4.621520 43.914102 -36.590506 31.945079 -7.323109 -1.664329 -2.812534 4.732820 -20.051607 -8.488087 1.818200 7.125000 0.000000 0.000000 6.690900 -35.599700 1.554200 
2.950707 16.426329 -0.579224 -16.729341 86.652632 -1.168692 14.349844 3.897544 -3.938228 -36.259103 -8.852254 -8.314983 1.116974 6.472104 15.745999 -1.304461 16.625644 29.605601 0.261300 -3.288500 -9.082900 -26.529900 -4.792821 -3.711867 50.015373 23.337226 -1.516710 -2.615080 -5.251425 15.347932 -3.421916 -8.116534 -31.627828 -0.520000 4.621600 -12.832500 0.623180 0.433560 -3.220918 0.647609 0.281414 -13.613068 2.322179 0.267108 9.520316 -1.838395 -9.336091 -27.578053 7.146663 41.910276 9.131435 179.561000 40.178200 28.618100 6.003515 -8.497859 6.145099 -95.040038 2.022578 31.627629 40.175966 -42.580128 -7.005162 0.117734 5.846233 -5.114728 10.212200 14.345816 1.433800 -7.125000 0.000000 0.000000 -14.656200 38.110100 2.552100 -3.437076 9.281072 5.079673 83.888893 -4.623901 44.048315 -36.504449 31.829060 -7.283223 -1.676605 -2.815993 4.746149 -20.140042 -8.480567 1.821600 7.125000 0.000000 0.000000 6.625000 -35.589000 1.540400 
2.950264 16.426684 -0.582065 -17.314690 86.656890 -1.764899 14.354197 3.921490 -3.918286 -36.242677 -8.839481 -8.333077 1.116100 6.470488 15.741564 -1.320356 16.614080 29.521190 0.265000 -3.311400 -9.146900 -26.524585 -4.772091 -3.743163 50.040292 23.280543 -1.464352 -2.608309 -5.225855 15.285112 -3.422371 -8.158313 -31.602449 -0.540600 4.711000 -13.086000 0.723783 0.473004 -3.212476 0.640691 0.317887 -13.620673 2.280985 0.296433 9.510560 -1.863305 -9.366164 -27.552449 7.148257 41.893250 9.134812 179.564000 40.203600 28.620700 6.019142 -8.496296 6.139096 -95.029145 2.042275 31.860013 40.117608 -42.499359 -6.976726 0.087367 5.855358 -5.133384 10.070988 14.372006 1.419400 -7.125000 0.000000 0.000000 -14.755200 38.118400 2.567200 -3.446068 9.289215 5.083522 83.875521 -4.681496 44.078317 -36.456338 31.758435 -7.257396 -1.674505 -2.826313 4.767172 -20.115278 -8.542031 1.836600 7.125000 0.000000 0.000000 6.647700 -35.641200 1.537300 
2.948932 16.427838 -0.584017 -16.764654 86.782738 -1.202012 14.359786 3.880809 -3.909548 -36.303682 -9.074774 -8.286769 1.114228 6.477093 15.747886 -1.295340 16.640501 29.661452 0.267100 -3.324800 -9.184200 -26.536025 -4.794120 -3.744897 49.988350 23.252186 -1.441629 -2.609843 -5.202884 15.215706 -3.429471 -8.241861 -31.614646 -0.544600 4.728000 -13.134200 0.732335 0.470269 -3.209643 0.601996 0.313167 -13.649729 2.263726 0.292589 9.492259 -1.876425 -9.389997 -27.533647 7.154763 41.886269 9.141563 179.537000 40.215800 28.616900 6.042437 -8.506274 6.134788 -95.002150 2.059711 32.106581 40.036654 -42.390163 -6.945970 0.080768 5.877375 -5.138156 10.040952 14.460385 1.426700 -7.125000 0.000000 0.000000 -14.790900 38.181300 2.550300 -3.459151 9.288149 5.087759 83.831080 -4.736901 44.169021 -36.411543 31.688900 -7.237246 -1.679964 -2.836030 4.726892 -20.164859 -8.577342 1.849600 7.125000 0.000000 0.000000 6.614700 -35.669700 1.524900 
2.945648 16.427661 -0.584195 -17.392252 86.829863 -1.814635 14.367810 3.899266 -3.880174 -36.274937 -9.160030 -8.339025 1.117928 6.494990 15.782209 -1.296634 16.646024 29.655548 0.261900 -3.292600 -9.094500 -26.539888 -4.764693 -3.779165 50.013524 23.219869 -1.381800 -2.598918 -5.162164 15.105203 -3.432038 -8.316472 -31.594056 -0.551500 4.757100 -13.217100 0.822758 0.496022 -3.150235 0.559279 0.332567 -13.738424 2.190576 0.314955 9.409154 -1.806735 -9.432083 -27.470901 7.185211 41.959470 9.173535 179.592000 40.279400 28.699800 6.057093 -8.509083 6.133667 -94.934523 2.148388 32.369732 39.947479 -42.245849 -6.908636 0.075060 5.914380 -5.054814 10.001390 14.622875 1.443300 -7.125000 0.000000 0.000000 -14.841100 38.300700 2.514600 -3.467418 9.305082 5.093238 83.896454 -4.838731 44.150588 -36.348555 31.598065 -7.202913 -1.683728 -2.830144 4.810207 -20.163255 -8.534396 1.836100 7.125000 0.000000 0.000000 6.611600 -35.628200 1.530900 
2.942808 16.428726 -0.584017 -17.700757 86.852494 -2.114324 14.363756 3.920353 -3.879276 -36.251202 -9.024560 -8.441690 1.119820 6.503312 15.814247 -1.341558 16.614239 29.402512 0.264800 -3.310500 -9.144500 -26.542923 -4.753675 -3.780395 50.025862 23.234792 -1.386820 -2.592977 -5.155981 15.082048 -3.433275 -8.390304 -31.581670 -0.557800 4.783800 -13.293000 0.882707 0.534109 -3.114658 0.535004 0.374174 -13.790282 2.154926 0.342441 9.367644 -1.781122 -9.467774 -27.452445 7.206487 42.092247 9.201093 179.684000 40.443600 28.822600 6.076845 -8.513794 6.128704 -94.918569 2.176604 32.612026 39.835699 -42.099516 -6.864639 0.076867 5.936086 -4.909636 9.971664 14.723470 1.453500 -7.125000 0.000000 0.000000 -14.873200 38.375400 2.492300 -3.477602 9.318066 5.100543 83.917697 -4.921594 44.106717 -36.306039 31.526641 -7.177866 -1.688335 -2.835575 4.880097 -20.182674 -8.578501 1.850300 7.125000 0.000000 0.000000 6.599700 -35.666900 1.521900 
